<mxfile host="65bd71144e">
    <diagram id="qolY-KQz3WuTsUYjIayP" name="Clases">
        <mxGraphModel dx="420" dy="472" grid="1" gridSize="10" guides="1" tooltips="1" connect="1" arrows="1" fold="1" page="1" pageScale="1" pageWidth="850" pageHeight="1100" math="0" shadow="0">
            <root>
                <mxCell id="0"/>
                <mxCell id="1" parent="0"/>
                <mxCell id="2" value="Pago&lt;br&gt;" style="swimlane;fontStyle=1;align=center;verticalAlign=top;childLayout=stackLayout;horizontal=1;startSize=26;horizontalStack=0;resizeParent=1;resizeParentMax=0;resizeLast=0;collapsible=1;marginBottom=0;whiteSpace=wrap;html=1;" parent="1" vertex="1">
                    <mxGeometry x="630" y="260" width="160" height="86" as="geometry"/>
                </mxCell>
                <mxCell id="3" value="+ field: type" style="text;strokeColor=none;fillColor=none;align=left;verticalAlign=top;spacingLeft=4;spacingRight=4;overflow=hidden;rotatable=0;points=[[0,0.5],[1,0.5]];portConstraint=eastwest;whiteSpace=wrap;html=1;" parent="2" vertex="1">
                    <mxGeometry y="26" width="160" height="26" as="geometry"/>
                </mxCell>
                <mxCell id="4" value="" style="line;strokeWidth=1;fillColor=none;align=left;verticalAlign=middle;spacingTop=-1;spacingLeft=3;spacingRight=3;rotatable=0;labelPosition=right;points=[];portConstraint=eastwest;strokeColor=inherit;" parent="2" vertex="1">
                    <mxGeometry y="52" width="160" height="8" as="geometry"/>
                </mxCell>
                <mxCell id="5" value="Efectuar_Pago()" style="text;strokeColor=none;fillColor=none;align=left;verticalAlign=top;spacingLeft=4;spacingRight=4;overflow=hidden;rotatable=0;points=[[0,0.5],[1,0.5]];portConstraint=eastwest;whiteSpace=wrap;html=1;fontStyle=1" parent="2" vertex="1">
                    <mxGeometry y="60" width="160" height="26" as="geometry"/>
                </mxCell>
                <mxCell id="6" value="Index(Cliente)" style="swimlane;fontStyle=1;align=center;verticalAlign=top;childLayout=stackLayout;horizontal=1;startSize=26;horizontalStack=0;resizeParent=1;resizeParentMax=0;resizeLast=0;collapsible=1;marginBottom=0;whiteSpace=wrap;html=1;" parent="1" vertex="1">
                    <mxGeometry x="30" y="260" width="160" height="86" as="geometry"/>
                </mxCell>
                <mxCell id="7" value="+ field: type" style="text;strokeColor=none;fillColor=none;align=left;verticalAlign=top;spacingLeft=4;spacingRight=4;overflow=hidden;rotatable=0;points=[[0,0.5],[1,0.5]];portConstraint=eastwest;whiteSpace=wrap;html=1;" parent="6" vertex="1">
                    <mxGeometry y="26" width="160" height="26" as="geometry"/>
                </mxCell>
                <mxCell id="8" value="" style="line;strokeWidth=1;fillColor=none;align=left;verticalAlign=middle;spacingTop=-1;spacingLeft=3;spacingRight=3;rotatable=0;labelPosition=right;points=[];portConstraint=eastwest;strokeColor=inherit;" parent="6" vertex="1">
                    <mxGeometry y="52" width="160" height="8" as="geometry"/>
                </mxCell>
                <mxCell id="9" value="+ method(type): type" style="text;strokeColor=none;fillColor=none;align=left;verticalAlign=top;spacingLeft=4;spacingRight=4;overflow=hidden;rotatable=0;points=[[0,0.5],[1,0.5]];portConstraint=eastwest;whiteSpace=wrap;html=1;" parent="6" vertex="1">
                    <mxGeometry y="60" width="160" height="26" as="geometry"/>
                </mxCell>
                <mxCell id="10" value="ProxyPagos" style="swimlane;fontStyle=1;align=center;verticalAlign=top;childLayout=stackLayout;horizontal=1;startSize=26;horizontalStack=0;resizeParent=1;resizeParentMax=0;resizeLast=0;collapsible=1;marginBottom=0;whiteSpace=wrap;html=1;" parent="1" vertex="1">
                    <mxGeometry x="320" y="260" width="180" height="112" as="geometry"/>
                </mxCell>
                <mxCell id="11" value="+ field: type" style="text;strokeColor=none;fillColor=none;align=left;verticalAlign=top;spacingLeft=4;spacingRight=4;overflow=hidden;rotatable=0;points=[[0,0.5],[1,0.5]];portConstraint=eastwest;whiteSpace=wrap;html=1;" parent="10" vertex="1">
                    <mxGeometry y="26" width="180" height="26" as="geometry"/>
                </mxCell>
                <mxCell id="12" value="" style="line;strokeWidth=1;fillColor=none;align=left;verticalAlign=middle;spacingTop=-1;spacingLeft=3;spacingRight=3;rotatable=0;labelPosition=right;points=[];portConstraint=eastwest;strokeColor=inherit;" parent="10" vertex="1">
                    <mxGeometry y="52" width="180" height="8" as="geometry"/>
                </mxCell>
                <mxCell id="13" value="efectua_Pago()" style="text;align=left;verticalAlign=top;spacingLeft=4;spacingRight=4;overflow=hidden;rotatable=0;points=[[0,0.5],[1,0.5]];portConstraint=eastwest;whiteSpace=wrap;html=1;fontStyle=1" parent="10" vertex="1">
                    <mxGeometry y="60" width="180" height="26" as="geometry"/>
                </mxCell>
                <mxCell id="14" value="DesplegarComprobante_Pago()" style="text;strokeColor=none;fillColor=none;align=left;verticalAlign=top;spacingLeft=4;spacingRight=4;overflow=hidden;rotatable=0;points=[[0,0.5],[1,0.5]];portConstraint=eastwest;whiteSpace=wrap;html=1;" parent="10" vertex="1">
                    <mxGeometry y="86" width="180" height="26" as="geometry"/>
                </mxCell>
                <mxCell id="15" value="«interface»&lt;br&gt;&lt;b&gt;Pago&lt;/b&gt;" style="html=1;whiteSpace=wrap;" parent="1" vertex="1">
                    <mxGeometry x="480" y="90" width="110" height="50" as="geometry"/>
                </mxCell>
                <mxCell id="16" value="" style="endArrow=block;dashed=1;endFill=0;endSize=12;html=1;rounded=0;exitX=0.5;exitY=0;exitDx=0;exitDy=0;" parent="1" source="10" target="15" edge="1">
                    <mxGeometry width="160" relative="1" as="geometry">
                        <mxPoint x="430" y="270" as="sourcePoint"/>
                        <mxPoint x="520" y="390" as="targetPoint"/>
                    </mxGeometry>
                </mxCell>
                <mxCell id="17" value="" style="endArrow=block;dashed=1;endFill=0;endSize=12;html=1;rounded=0;entryX=0.75;entryY=1;entryDx=0;entryDy=0;exitX=0.5;exitY=0;exitDx=0;exitDy=0;" parent="1" source="2" target="15" edge="1">
                    <mxGeometry width="160" relative="1" as="geometry">
                        <mxPoint x="360" y="390" as="sourcePoint"/>
                        <mxPoint x="520" y="390" as="targetPoint"/>
                    </mxGeometry>
                </mxCell>
                <mxCell id="18" value="" style="endArrow=classic;html=1;rounded=0;exitX=1;exitY=0.5;exitDx=0;exitDy=0;entryX=0;entryY=0.5;entryDx=0;entryDy=0;" parent="1" source="7" target="11" edge="1">
                    <mxGeometry width="50" height="50" relative="1" as="geometry">
                        <mxPoint x="420" y="420" as="sourcePoint"/>
                        <mxPoint x="470" y="370" as="targetPoint"/>
                    </mxGeometry>
                </mxCell>
                <mxCell id="19" value="" style="endArrow=classic;html=1;rounded=0;entryX=0;entryY=0.5;entryDx=0;entryDy=0;exitX=1;exitY=0.5;exitDx=0;exitDy=0;" parent="1" source="11" target="3" edge="1">
                    <mxGeometry width="50" height="50" relative="1" as="geometry">
                        <mxPoint x="420" y="420" as="sourcePoint"/>
                        <mxPoint x="470" y="370" as="targetPoint"/>
                    </mxGeometry>
                </mxCell>
                <mxCell id="20" value="Recibo" style="swimlane;fontStyle=1;align=center;verticalAlign=top;childLayout=stackLayout;horizontal=1;startSize=26;horizontalStack=0;resizeParent=1;resizeParentMax=0;resizeLast=0;collapsible=1;marginBottom=0;whiteSpace=wrap;html=1;" parent="1" vertex="1">
                    <mxGeometry x="630" y="470" width="160" height="86" as="geometry"/>
                </mxCell>
                <mxCell id="21" value="+ field: type" style="text;strokeColor=none;fillColor=none;align=left;verticalAlign=top;spacingLeft=4;spacingRight=4;overflow=hidden;rotatable=0;points=[[0,0.5],[1,0.5]];portConstraint=eastwest;whiteSpace=wrap;html=1;" parent="20" vertex="1">
                    <mxGeometry y="26" width="160" height="26" as="geometry"/>
                </mxCell>
                <mxCell id="22" value="" style="line;strokeWidth=1;fillColor=none;align=left;verticalAlign=middle;spacingTop=-1;spacingLeft=3;spacingRight=3;rotatable=0;labelPosition=right;points=[];portConstraint=eastwest;strokeColor=inherit;" parent="20" vertex="1">
                    <mxGeometry y="52" width="160" height="8" as="geometry"/>
                </mxCell>
                <mxCell id="23" value="+ InformacionPago()" style="text;strokeColor=none;fillColor=none;align=left;verticalAlign=top;spacingLeft=4;spacingRight=4;overflow=hidden;rotatable=0;points=[[0,0.5],[1,0.5]];portConstraint=eastwest;whiteSpace=wrap;html=1;" parent="20" vertex="1">
                    <mxGeometry y="60" width="160" height="26" as="geometry"/>
                </mxCell>
                <mxCell id="24" value="1" style="endArrow=open;html=1;endSize=12;startArrow=diamondThin;startSize=14;startFill=0;edgeStyle=orthogonalEdgeStyle;align=left;verticalAlign=bottom;rounded=0;exitX=0.5;exitY=1.154;exitDx=0;exitDy=0;exitPerimeter=0;" parent="1" source="5" target="20" edge="1">
                    <mxGeometry x="-1" y="3" relative="1" as="geometry">
                        <mxPoint x="360" y="390" as="sourcePoint"/>
                        <mxPoint x="520" y="390" as="targetPoint"/>
                        <Array as="points">
                            <mxPoint x="710" y="370"/>
                            <mxPoint x="710" y="370"/>
                        </Array>
                    </mxGeometry>
                </mxCell>
                <mxCell id="25" value="efectua_pago()" style="text;html=1;strokeColor=none;fillColor=none;align=center;verticalAlign=middle;whiteSpace=wrap;rounded=0;" parent="1" vertex="1">
                    <mxGeometry x="370" y="210" width="60" height="30" as="geometry"/>
                </mxCell>
                <mxCell id="26" value="efectua_pago()" style="text;html=1;strokeColor=none;fillColor=none;align=center;verticalAlign=middle;whiteSpace=wrap;rounded=0;" parent="1" vertex="1">
                    <mxGeometry x="700" y="210" width="60" height="30" as="geometry"/>
                </mxCell>
                <mxCell id="27" value="efectua_pago()" style="text;html=1;strokeColor=none;fillColor=none;align=center;verticalAlign=middle;whiteSpace=wrap;rounded=0;" parent="1" vertex="1">
                    <mxGeometry x="210" y="270" width="60" height="30" as="geometry"/>
                </mxCell>
                <mxCell id="28" value="efectua_pago()" style="text;html=1;strokeColor=none;fillColor=none;align=center;verticalAlign=middle;whiteSpace=wrap;rounded=0;" parent="1" vertex="1">
                    <mxGeometry x="530" y="270" width="60" height="30" as="geometry"/>
                </mxCell>
                <mxCell id="29" value="&lt;font style=&quot;font-size: 18px;&quot;&gt;&lt;b&gt;Diagrama de clases&amp;nbsp;&lt;br&gt;Proxy&lt;/b&gt;&lt;/font&gt;" style="text;html=1;align=center;verticalAlign=middle;resizable=0;points=[];autosize=1;strokeColor=none;fillColor=none;" vertex="1" parent="1">
                    <mxGeometry x="135" y="98" width="191" height="55" as="geometry"/>
                </mxCell>
            </root>
        </mxGraphModel>
    </diagram>
    <diagram id="T2ibamg-cPCGa6-lUwTA" name="Secuencia">
        <mxGraphModel dx="350" dy="393" grid="1" gridSize="10" guides="1" tooltips="1" connect="1" arrows="1" fold="1" page="1" pageScale="1" pageWidth="850" pageHeight="1100" math="0" shadow="0">
            <root>
                <mxCell id="0"/>
                <mxCell id="1" parent="0"/>
                <mxCell id="N7qKesGW9aKVvcxUypAH-1" value="&lt;b style=&quot;border-color: rgb(0, 0, 0); color: rgb(240, 240, 240); font-family: Helvetica; font-size: 18px; font-style: normal; font-variant-ligatures: normal; font-variant-caps: normal; letter-spacing: normal; orphans: 2; text-indent: 0px; text-transform: none; widows: 2; word-spacing: 0px; -webkit-text-stroke-width: 0px; background-color: rgb(42, 37, 47); text-decoration-thickness: initial; text-decoration-style: initial; text-decoration-color: initial;&quot;&gt;Diagrama de secuencia&lt;br style=&quot;border-color: rgb(0, 0, 0);&quot;&gt;Proxy&lt;/b&gt;" style="text;whiteSpace=wrap;html=1;fontSize=18;align=center;" vertex="1" parent="1">
                    <mxGeometry x="290" y="80" width="229" height="65" as="geometry"/>
                </mxCell>
                <mxCell id="N7qKesGW9aKVvcxUypAH-2" value="" style="endArrow=none;dashed=1;html=1;dashPattern=1 3;strokeWidth=2;rounded=0;entryX=0.5;entryY=1;entryDx=0;entryDy=0;" edge="1" parent="1" target="N7qKesGW9aKVvcxUypAH-4">
                    <mxGeometry width="50" height="50" relative="1" as="geometry">
                        <mxPoint x="582" y="820" as="sourcePoint"/>
                        <mxPoint x="257" y="580" as="targetPoint"/>
                    </mxGeometry>
                </mxCell>
                <mxCell id="N7qKesGW9aKVvcxUypAH-3" value="ProxyPago" style="html=1;whiteSpace=wrap;" vertex="1" parent="1">
                    <mxGeometry x="247" y="180" width="110" height="50" as="geometry"/>
                </mxCell>
                <mxCell id="N7qKesGW9aKVvcxUypAH-4" value="Pago" style="html=1;whiteSpace=wrap;" vertex="1" parent="1">
                    <mxGeometry x="527" y="180" width="110" height="50" as="geometry"/>
                </mxCell>
                <mxCell id="N7qKesGW9aKVvcxUypAH-5" value="" style="html=1;points=[];perimeter=orthogonalPerimeter;outlineConnect=0;targetShapes=umlLifeline;portConstraint=eastwest;newEdgeStyle={&quot;edgeStyle&quot;:&quot;elbowEdgeStyle&quot;,&quot;elbow&quot;:&quot;vertical&quot;,&quot;curved&quot;:0,&quot;rounded&quot;:0};" vertex="1" parent="1">
                    <mxGeometry x="577" y="260" width="10" height="520" as="geometry"/>
                </mxCell>
                <mxCell id="N7qKesGW9aKVvcxUypAH-6" value="Cliente" style="html=1;whiteSpace=wrap;" vertex="1" parent="1">
                    <mxGeometry x="47" y="180" width="110" height="50" as="geometry"/>
                </mxCell>
                <mxCell id="N7qKesGW9aKVvcxUypAH-7" value="" style="endArrow=none;dashed=1;html=1;dashPattern=1 3;strokeWidth=2;rounded=0;entryX=0.5;entryY=1;entryDx=0;entryDy=0;" edge="1" parent="1" source="N7qKesGW9aKVvcxUypAH-9" target="N7qKesGW9aKVvcxUypAH-6">
                    <mxGeometry width="50" height="50" relative="1" as="geometry">
                        <mxPoint x="102" y="900" as="sourcePoint"/>
                        <mxPoint x="257" y="450" as="targetPoint"/>
                    </mxGeometry>
                </mxCell>
                <mxCell id="N7qKesGW9aKVvcxUypAH-8" value="" style="endArrow=none;dashed=1;html=1;dashPattern=1 3;strokeWidth=2;rounded=0;entryX=0.5;entryY=1;entryDx=0;entryDy=0;" edge="1" parent="1" target="N7qKesGW9aKVvcxUypAH-9">
                    <mxGeometry width="50" height="50" relative="1" as="geometry">
                        <mxPoint x="102" y="820" as="sourcePoint"/>
                        <mxPoint x="102" y="230" as="targetPoint"/>
                    </mxGeometry>
                </mxCell>
                <mxCell id="N7qKesGW9aKVvcxUypAH-9" value="" style="html=1;points=[];perimeter=orthogonalPerimeter;outlineConnect=0;targetShapes=umlLifeline;portConstraint=eastwest;newEdgeStyle={&quot;edgeStyle&quot;:&quot;elbowEdgeStyle&quot;,&quot;elbow&quot;:&quot;vertical&quot;,&quot;curved&quot;:0,&quot;rounded&quot;:0};" vertex="1" parent="1">
                    <mxGeometry x="97" y="260" width="10" height="520" as="geometry"/>
                </mxCell>
                <mxCell id="N7qKesGW9aKVvcxUypAH-10" value="" style="endArrow=none;dashed=1;html=1;dashPattern=1 3;strokeWidth=2;rounded=0;" edge="1" parent="1" source="N7qKesGW9aKVvcxUypAH-12" target="N7qKesGW9aKVvcxUypAH-3">
                    <mxGeometry width="50" height="50" relative="1" as="geometry">
                        <mxPoint x="302" y="900" as="sourcePoint"/>
                        <mxPoint x="257" y="580" as="targetPoint"/>
                    </mxGeometry>
                </mxCell>
                <mxCell id="N7qKesGW9aKVvcxUypAH-11" value="" style="endArrow=none;dashed=1;html=1;dashPattern=1 3;strokeWidth=2;rounded=0;" edge="1" parent="1" target="N7qKesGW9aKVvcxUypAH-12">
                    <mxGeometry width="50" height="50" relative="1" as="geometry">
                        <mxPoint x="302" y="820" as="sourcePoint"/>
                        <mxPoint x="302" y="230" as="targetPoint"/>
                    </mxGeometry>
                </mxCell>
                <mxCell id="N7qKesGW9aKVvcxUypAH-12" value="" style="html=1;points=[];perimeter=orthogonalPerimeter;outlineConnect=0;targetShapes=umlLifeline;portConstraint=eastwest;newEdgeStyle={&quot;edgeStyle&quot;:&quot;elbowEdgeStyle&quot;,&quot;elbow&quot;:&quot;vertical&quot;,&quot;curved&quot;:0,&quot;rounded&quot;:0};" vertex="1" parent="1">
                    <mxGeometry x="297" y="260" width="10" height="520" as="geometry"/>
                </mxCell>
                <mxCell id="N7qKesGW9aKVvcxUypAH-13" value="new ProxyPago ()" style="html=1;verticalAlign=bottom;endArrow=block;edgeStyle=elbowEdgeStyle;elbow=vertical;curved=0;rounded=0;" edge="1" parent="1">
                    <mxGeometry width="80" relative="1" as="geometry">
                        <mxPoint x="107" y="278" as="sourcePoint"/>
                        <mxPoint x="297" y="278" as="targetPoint"/>
                    </mxGeometry>
                </mxCell>
                <mxCell id="N7qKesGW9aKVvcxUypAH-14" value="new Pago ()" style="html=1;verticalAlign=bottom;endArrow=block;edgeStyle=elbowEdgeStyle;elbow=vertical;curved=0;rounded=0;" edge="1" parent="1" target="N7qKesGW9aKVvcxUypAH-5">
                    <mxGeometry width="80" relative="1" as="geometry">
                        <mxPoint x="307" y="300" as="sourcePoint"/>
                        <mxPoint x="497" y="300" as="targetPoint"/>
                    </mxGeometry>
                </mxCell>
                <mxCell id="N7qKesGW9aKVvcxUypAH-15" value="Pago → Efectúa pago" style="html=1;verticalAlign=bottom;endArrow=block;edgeStyle=elbowEdgeStyle;elbow=vertical;curved=0;rounded=0;" edge="1" parent="1">
                    <mxGeometry width="80" relative="1" as="geometry">
                        <mxPoint x="307" y="340" as="sourcePoint"/>
                        <mxPoint x="577" y="340" as="targetPoint"/>
                    </mxGeometry>
                </mxCell>
                <mxCell id="N7qKesGW9aKVvcxUypAH-16" value="" style="endArrow=classic;html=1;rounded=0;exitX=1;exitY=0.269;exitDx=0;exitDy=0;exitPerimeter=0;" edge="1" parent="1">
                    <mxGeometry width="50" height="50" relative="1" as="geometry">
                        <mxPoint x="587" y="360" as="sourcePoint"/>
                        <mxPoint x="587" y="390.12" as="targetPoint"/>
                        <Array as="points">
                            <mxPoint x="627" y="360.12"/>
                            <mxPoint x="627" y="390.12"/>
                        </Array>
                    </mxGeometry>
                </mxCell>
                <mxCell id="N7qKesGW9aKVvcxUypAH-17" value="return Recibo" style="html=1;verticalAlign=bottom;endArrow=open;dashed=1;endSize=8;edgeStyle=elbowEdgeStyle;elbow=vertical;curved=0;rounded=0;entryX=1;entryY=0.353;entryDx=0;entryDy=0;entryPerimeter=0;" edge="1" parent="1">
                    <mxGeometry relative="1" as="geometry">
                        <mxPoint x="577" y="476" as="sourcePoint"/>
                        <mxPoint x="307" y="476.03" as="targetPoint"/>
                    </mxGeometry>
                </mxCell>
                <mxCell id="N7qKesGW9aKVvcxUypAH-18" value="return Pago" style="html=1;verticalAlign=bottom;endArrow=open;dashed=1;endSize=8;edgeStyle=elbowEdgeStyle;elbow=vertical;curved=0;rounded=0;entryX=1;entryY=0.353;entryDx=0;entryDy=0;entryPerimeter=0;" edge="1" parent="1">
                    <mxGeometry relative="1" as="geometry">
                        <mxPoint x="297" y="510" as="sourcePoint"/>
                        <mxPoint x="107" y="510" as="targetPoint"/>
                    </mxGeometry>
                </mxCell>
                <mxCell id="N7qKesGW9aKVvcxUypAH-19" value="ProcesandoPago()" style="text;html=1;strokeColor=none;fillColor=none;align=center;verticalAlign=middle;whiteSpace=wrap;rounded=0;" vertex="1" parent="1">
                    <mxGeometry x="657" y="360.12" width="60" height="30" as="geometry"/>
                </mxCell>
                <mxCell id="N7qKesGW9aKVvcxUypAH-20" value="return ProxyPago" style="html=1;verticalAlign=bottom;endArrow=open;dashed=1;endSize=8;edgeStyle=elbowEdgeStyle;elbow=vertical;curved=0;rounded=0;entryX=1;entryY=0.353;entryDx=0;entryDy=0;entryPerimeter=0;" edge="1" parent="1">
                    <mxGeometry relative="1" as="geometry">
                        <mxPoint x="297" y="689" as="sourcePoint"/>
                        <mxPoint x="107" y="689" as="targetPoint"/>
                    </mxGeometry>
                </mxCell>
                <mxCell id="N7qKesGW9aKVvcxUypAH-21" value="" style="endArrow=classic;html=1;rounded=0;exitX=1;exitY=0.269;exitDx=0;exitDy=0;exitPerimeter=0;" edge="1" parent="1">
                    <mxGeometry width="50" height="50" relative="1" as="geometry">
                        <mxPoint x="307" y="620" as="sourcePoint"/>
                        <mxPoint x="307" y="650" as="targetPoint"/>
                        <Array as="points">
                            <mxPoint x="347" y="620"/>
                            <mxPoint x="347" y="650"/>
                        </Array>
                    </mxGeometry>
                </mxCell>
                <mxCell id="N7qKesGW9aKVvcxUypAH-22" value="ProcesandoPago()" style="text;html=1;strokeColor=none;fillColor=none;align=center;verticalAlign=middle;whiteSpace=wrap;rounded=0;" vertex="1" parent="1">
                    <mxGeometry x="377" y="620" width="60" height="30" as="geometry"/>
                </mxCell>
                <mxCell id="N7qKesGW9aKVvcxUypAH-23" value="Proxy(Pago) → Efectúa pago()" style="html=1;verticalAlign=bottom;endArrow=block;edgeStyle=elbowEdgeStyle;elbow=vertical;curved=0;rounded=0;" edge="1" parent="1">
                    <mxGeometry width="80" relative="1" as="geometry">
                        <mxPoint x="107" y="576" as="sourcePoint"/>
                        <mxPoint x="297" y="576" as="targetPoint"/>
                    </mxGeometry>
                </mxCell>
                <mxCell id="N7qKesGW9aKVvcxUypAH-24" value="" style="endArrow=none;dashed=1;html=1;dashPattern=1 3;strokeWidth=2;rounded=0;entryX=0.5;entryY=1;entryDx=0;entryDy=0;" edge="1" parent="1" target="N7qKesGW9aKVvcxUypAH-25">
                    <mxGeometry width="50" height="50" relative="1" as="geometry">
                        <mxPoint x="822" y="820" as="sourcePoint"/>
                        <mxPoint x="497" y="580" as="targetPoint"/>
                    </mxGeometry>
                </mxCell>
                <mxCell id="N7qKesGW9aKVvcxUypAH-25" value="Recibo" style="html=1;whiteSpace=wrap;" vertex="1" parent="1">
                    <mxGeometry x="767" y="180" width="110" height="50" as="geometry"/>
                </mxCell>
                <mxCell id="N7qKesGW9aKVvcxUypAH-26" value="" style="html=1;points=[];perimeter=orthogonalPerimeter;outlineConnect=0;targetShapes=umlLifeline;portConstraint=eastwest;newEdgeStyle={&quot;edgeStyle&quot;:&quot;elbowEdgeStyle&quot;,&quot;elbow&quot;:&quot;vertical&quot;,&quot;curved&quot;:0,&quot;rounded&quot;:0};" vertex="1" parent="1">
                    <mxGeometry x="817" y="260" width="10" height="520" as="geometry"/>
                </mxCell>
                <mxCell id="N7qKesGW9aKVvcxUypAH-27" value="new Recibo ()" style="html=1;verticalAlign=bottom;endArrow=block;edgeStyle=elbowEdgeStyle;elbow=vertical;curved=0;rounded=0;" edge="1" parent="1" source="N7qKesGW9aKVvcxUypAH-5">
                    <mxGeometry width="80" relative="1" as="geometry">
                        <mxPoint x="547" y="380" as="sourcePoint"/>
                        <mxPoint x="817" y="420" as="targetPoint"/>
                        <Array as="points">
                            <mxPoint x="757" y="420"/>
                            <mxPoint x="787" y="370"/>
                        </Array>
                    </mxGeometry>
                </mxCell>
                <mxCell id="N7qKesGW9aKVvcxUypAH-28" value="return Recibo" style="html=1;verticalAlign=bottom;endArrow=open;dashed=1;endSize=8;edgeStyle=elbowEdgeStyle;elbow=vertical;curved=0;rounded=0;" edge="1" parent="1">
                    <mxGeometry relative="1" as="geometry">
                        <mxPoint x="817" y="407" as="sourcePoint"/>
                        <mxPoint x="587" y="457" as="targetPoint"/>
                        <Array as="points">
                            <mxPoint x="647" y="457"/>
                        </Array>
                    </mxGeometry>
                </mxCell>
            </root>
        </mxGraphModel>
    </diagram>
</mxfile>